<?xml version="1.0" encoding="UTF-8"?>
<svg id="Camada_2" data-name="Camada 2" xmlns="http://www.w3.org/2000/svg" xmlns:xlink="http://www.w3.org/1999/xlink" viewBox="0 0 85.64 73.71">
  <defs>
    <style>
      .cls-1 {
        fill: url(#Gradiente_sem_nome_35);
      }

      .cls-2 {
        fill: url(#Gradiente_sem_nome_35-2);
      }

      .cls-3 {
        fill: url(#Gradiente_sem_nome_35-3);
      }
    </style>
    <linearGradient id="Gradiente_sem_nome_35" data-name="Gradiente sem nome 35" x1="14.94" y1="79.54" x2="39.97" y2="20.28" gradientUnits="userSpaceOnUse">
      <stop offset="0" stop-color="#f1dcaa"/>
      <stop offset="1" stop-color="#f8ad63"/>
    </linearGradient>
    <linearGradient id="Gradiente_sem_nome_35-2" data-name="Gradiente sem nome 35" x1="13.18" y1="78.8" x2="38.21" y2="19.54" xlink:href="#Gradiente_sem_nome_35"/>
    <linearGradient id="Gradiente_sem_nome_35-3" data-name="Gradiente sem nome 35" x1="40.55" y1="90.36" x2="65.58" y2="31.1" xlink:href="#Gradiente_sem_nome_35"/>
  </defs>
  <g id="Logotipo_e_Cores" data-name="Logotipo e Cores">
    <g>
      <path class="cls-1" d="M51.59,18.65l-8.96,12.41c-.36.5-1.11.5-1.47,0l-8.95-12.41c-1.26-1.75-1.26-4.1,0-5.85L41.16.38c.36-.5,1.11-.5,1.47,0l8.96,12.41c1.26,1.75,1.26,4.11,0,5.85Z"/>
      <g>
        <path class="cls-2" d="M51.97,73.71h-17.42c-2.59,0-4.95-1.47-6.1-3.78L0,12.62h19.57c.34,0,.66.2.81.5l19.36,38.98c.58,1.16,1.76,1.89,3.05,1.89h18.4c1.56,0,3.06-.58,4.21-1.63h0s-7.19,17.19-7.19,17.19c-1.05,2.52-3.51,4.15-6.24,4.15Z"/>
        <path class="cls-3" d="M85.64,12.62h-16.98c-4.58,0-8.71,2.75-10.48,6.97l-12.88,30.81h15.93c2.75,0,5.22-1.65,6.28-4.18l11.64-27.82c1.17-2.81,3.56-4.93,6.48-5.78h0Z"/>
      </g>
    </g>
  </g>
</svg>